<?xml version="1.0" encoding="utf-8"?>
<!-- Generator: Adobe Illustrator 26.1.0, SVG Export Plug-In . SVG Version: 6.00 Build 0)  -->
<svg version="1.1" xmlns="http://www.w3.org/2000/svg" xmlns:xlink="http://www.w3.org/1999/xlink" x="0px" y="0px"
	 viewBox="0 0 3924.66 3762.03" style="enable-background:new 0 0 3924.66 3762.03;" xml:space="preserve">
<style type="text/css">
	.st0{display:none;}
	.st1{display:inline;fill:#A09F9F;}
	.st2{display:inline;fill:#FFFFFF;}
	.st3{fill:#F05223;}
	.st4{display:inline;fill:#3E3F99;}
	.st5{display:inline;fill:url(#SVGID_1_);stroke:#3E3F99;stroke-miterlimit:10;}
	.st6{display:inline;fill:url(#SVGID_00000052090107747091199790000016105041603948144302_);stroke:#3E3F99;stroke-miterlimit:10;}
	.st7{display:inline;fill:url(#SVGID_00000034068015408718790170000002125265039624204207_);stroke:#3E3F99;stroke-miterlimit:10;}
	.st8{fill:url(#SVGID_00000152244916988029531640000016243005816286753669_);}
	.st9{fill:#3E3F99;}
	.st10{display:inline;}
	.st11{fill:none;stroke:#7F3F98;stroke-width:4;stroke-miterlimit:10;}
</style>
<g id="Layer_10" class="st0">
</g>
<g id="Layer_3" class="st0">
	<path class="st1" d="M5941.33,4209.01c0,6.63-5.37,12-12,12h-7896c-6.63,0-12-5.37-12-12v-4464c0-6.63,5.37-12,12-12h7896
		c6.63,0,12,5.37,12,12V4209.01z"/>
</g>
<g id="Layer_1" class="st0">
</g>
<g id="Layer_2" class="st0">
	<path class="st2" d="M415.33,2162.01c0,0,307.64-255.55,342-285c42-36,214-180,462-118l629,153c0,0,34,11,58-10s90-79,90-79
		s16-12,13-52s-36-624-36-624s-22-234,152-404l392-328c0,0,7.56-14.34,22.56,5.16s974.95,1172.94,974.95,1172.94s19.5,15-1.5,33
		c-21,18-334.48,277.48-334.48,277.48s-190.49,169.49-416.98,125.49l-683.97-161.49c0,0-23.25-8.59-55.25,18.75s-80,68.67-80,68.67
		s-17.33,13.33-16.67,38.67s33.33,605.33,33.33,605.33s31.59,294.54-168,462c-204.83,171.85-364.38,302.02-364.38,302.02
		s-15.62,17.98-31.62-1.02l-980-1176C415.33,2186.01,403.33,2172.01,415.33,2162.01z"/>
</g>
<g id="Layer_4">
	<path class="st3" d="M1374.67,3336.68"/>
	<path class="st3" d="M551.67,2189.65l41.13-35.96c19.54-14.43,47.15-12.85,47.15-12.85l1163.84,54.39
		c27.91-1.86,25.12,21.4,25.12,21.4l22.47,429.84c7.96,232.53-134.31,337.4-134.31,337.4l-277.38,222.57L551.67,2189.65z"/>
</g>
<g id="Layer_5">
	<path class="st3" d="M3264.13,1692.1l-147.92,119.7c0,0-138.87,136.21-344.33,113.83c-36.53-3.98-566.66-144.66-566.66-144.66
		s-6.41-1.7-5.43-8.71s9.17-6.59,9.17-6.59l1046.24-93c0,0,10.85-1.89,13.53,5.25C3271.7,1685.83,3264.13,1692.1,3264.13,1692.1z"/>
</g>
<g id="Layer_6" class="st0">
	<path class="st4" d="M1402,3370.35l406-334.33c173.33-158.33,145.43-437.45,145.43-437.45L1920,1989.35
		c-1-26,18.33-39.67,18.33-39.67l90.67-75.33c24-20.33,56.33-11,56.33-11l628.67,149c250.67,74,476.33-127.33,476.33-127.33l333-274
		L2527,414.35l-381,319.33c-181.33,159.33-166.67,416.33-166.67,416.33l37,636c1,27-13.67,41-13.67,41s-82.33,75.67-98.33,86.67
		s-43,9.33-43,9.33l-670.33-162c-231.66-50.67-416.66,111-416.66,111l-365,303.67L1402,3370.35z"/>
</g>
<g id="Layer_7" class="st0">
	
		<radialGradient id="SVGID_1_" cx="1980.4189" cy="1877.0132" r="1667.4362" gradientTransform="matrix(-0.6428 -0.766 0.6128 -0.5142 2103.1074 4359.3188)" gradientUnits="userSpaceOnUse">
		<stop  offset="0" style="stop-color:#5998D2"/>
		<stop  offset="1" style="stop-color:#3E3F99"/>
	</radialGradient>
	<path class="st5" d="M273.5,2147.09l442.98-362.99c0,0,225.99-210.49,622.85-103.09l514.59,129.09c0,0,7.07,2.24,17.41-6.76
		c10.33-9,35.33-30,35.33-30s6-4,6-15.33s-38.33-651-38.33-651s-16-273,226-478c85.09-72.08,85.09-72.08,85.09-72.08l370.91-306.92
		l1131,1363l-457.99,378.09c0,0-209.01,190.91-530.01,131.91l-608-152c0,0-14-5.33-26.67,6.67s-37.33,32.33-37.33,32.33
		s-6.33,5-4,21.67l34,687.33c0,0,7,241-259,463l-394,322L273.5,2147.09z"/>
</g>
<g id="Layer_7_copy" class="st0">
	
		<radialGradient id="SVGID_00000124124602789745097500000001973204085285709458_" cx="1980.4189" cy="1877.0132" r="1667.4362" gradientTransform="matrix(-0.6428 -0.766 0.6128 -0.5142 2103.1074 4359.3188)" gradientUnits="userSpaceOnUse">
		<stop  offset="0" style="stop-color:#5998D2"/>
		<stop  offset="1" style="stop-color:#3E3F99"/>
	</radialGradient>
	
		<path style="display:inline;fill:url(#SVGID_00000124124602789745097500000001973204085285709458_);stroke:#3E3F99;stroke-miterlimit:10;" d="
		M273.5,2147.09l442.98-362.99c0,0,225.99-210.49,622.85-103.09l514.59,129.09c0,0,7.07,2.24,17.41-6.76c10.33-9,35.33-30,35.33-30
		s6-4,6-15.33s-38.33-651-38.33-651s-16-273,226-478c85.09-72.08,85.09-72.08,85.09-72.08l370.91-306.92l1131,1363l-457.99,378.09
		c0,0-209.01,190.91-530.01,131.91l-608-152c0,0-14-5.33-26.67,6.67s-37.33,32.33-37.33,32.33s-6.33,5-4,21.67l34,687.33
		c0,0,19,247-258,464l-395,321L273.5,2147.09z"/>
	
		<radialGradient id="SVGID_00000067196941717448077860000005219573958086271899_" cx="1968.4327" cy="1888.5054" r="1519.7012" gradientTransform="matrix(-0.6428 -0.766 0.6128 -0.5142 2076.3735 4367.5386)" gradientUnits="userSpaceOnUse">
		<stop  offset="0" style="stop-color:#5998D2"/>
		<stop  offset="1" style="stop-color:#3E3F99"/>
	</radialGradient>
	
		<path style="display:inline;fill:url(#SVGID_00000067196941717448077860000005219573958086271899_);stroke:#3E3F99;stroke-miterlimit:10;" d="
		M410.43,2164.24l368.23-304.63c0,0,192.67-172.59,497.87-89.6l590.01,144.7c0,0,23.79,2.97,45.74-17.62
		c16.92-15.87,81.46-72.05,81.46-72.05s16.26-13.36,16.73-44.85c0.14-9.58-37.15-642.88-37.15-642.88s-19.99-257.31,198.4-435.67
		c75.6-61.75,351.09-293.55,351.09-293.55l1003.63,1206.05l-383.11,319.86c0,0-188,152-459.1,84.66l-563.26-141.96
		c0,0-60.53-18.7-83.94-1.22c-11.81,8.82-94.86,80.21-94.86,80.21s-18.17,11.97-15.95,42.58l37.92,673.47
		c0,0-6.22,239.79-171.67,392.05l-375.94,305.1L410.43,2164.24z"/>
</g>
<g id="Layer_7_copy_2">
	
		<radialGradient id="SVGID_00000089541554013489432100000005831358706176055209_" cx="1980.4189" cy="1877.0132" r="1667.4362" gradientTransform="matrix(-0.6428 -0.766 0.6894 -0.5785 1959.3198 4479.9707)" gradientUnits="userSpaceOnUse">
		<stop  offset="0.5215" style="stop-color:#5998D2"/>
		<stop  offset="1" style="stop-color:#3E3F99"/>
	</radialGradient>
	<path style="fill:url(#SVGID_00000089541554013489432100000005831358706176055209_);" d="M2556.33,250.01l-370.91,306.92
		c0,0,0,0-85.09,72.08c-242,205-226,478-226,478s38.33,639.67,38.33,651s-6,15.33-6,15.33s-25,21-35.33,30
		c-10.33,9-17.41,6.76-17.41,6.76l-514.59-129.09c-396.86-107.39-622.85,103.09-622.85,103.09L273.5,2147.09l1130.83,1356.92
		l395-321c283.08-224.96,258-464,258-464l-34-687.33c-2.33-16.67,4-21.67,4-21.67s24.67-20.33,37.33-32.33s26.67-6.67,26.67-6.67
		l608,152c321,59,530.01-131.91,530.01-131.91l457.99-378.09L2556.33,250.01z M3143.33,1934.01c0,0-188,152-459.1,84.66
		l-563.26-141.96c0,0-60.53-18.7-83.94-1.22c-11.81,8.82-94.86,80.21-94.86,80.21s-18.17,11.97-15.95,42.58l37.92,673.47
		c0,0,4.28,236.79-171.67,392.05l-375.94,305.1L410.43,2164.24l368.23-304.63c0,0,192.67-172.59,497.87-89.6l590.01,144.7
		c0,0,23.79,2.97,45.74-17.62c16.92-15.87,81.46-72.05,81.46-72.05s16.26-13.36,16.73-44.85c0.14-9.58-37.15-642.88-37.15-642.88
		s-19.99-257.31,198.4-435.67c75.6-61.75,351.09-293.55,351.09-293.55l1003.63,1206.05L3143.33,1934.01z"/>
	<path class="st9" d="M2448.33,326.01l1140.01,1367.6c0,0,99.75,129.87,245.99,2.4c121.49-105.89,53-205,16-247L2718.89,93.19
		c0,0-91.55-110.18-230.55-1.18C2350.92,199.77,2448.33,326.01,2448.33,326.01z"/>
	<path class="st9" d="M64.33,2310.01l1140.01,1367.6c0,0,99.75,129.87,245.99,2.4c121.49-105.89,53-205,16-247L334.89,2077.19
		c0,0-91.55-110.18-230.55-1.18C-33.08,2183.77,64.33,2310.01,64.33,2310.01z"/>
</g>
<g id="Layer_11" class="st0">
</g>
<g id="Layer_14_copy_2" class="st0">
	<g class="st10">
		<line class="st11" x1="1843.44" y1="2495.88" x2="1847.54" y2="2576.79"/>
		<line class="st11" x1="1954.38" y1="2490.26" x2="1958.48" y2="2571.17"/>
		<line class="st11" x1="1956.58" y1="2527.54" x2="1846.59" y2="2533.11"/>
		<polyline class="st11" points="1935.12,2541.62 1953.76,2528 1934.02,2513.79 		"/>
		<polyline class="st11" points="1867.08,2518.45 1848.44,2532.07 1868.18,2546.28 		"/>
	</g>
</g>
<g id="Layer_14_copy_3" class="st0">
	<g class="st10">
		<line class="st11" x1="1847.52" y1="2716.94" x2="1829.96" y2="2796.03"/>
		<line class="st11" x1="1955.96" y1="2741.02" x2="1938.4" y2="2820.11"/>
		<line class="st11" x1="1948.17" y1="2777.54" x2="1840.66" y2="2753.67"/>
		<polyline class="st11" points="1923.74,2785.41 1945.32,2777.23 1930.08,2758.29 		"/>
		<polyline class="st11" points="1864.31,2744.98 1842.72,2753.16 1857.96,2772.1 		"/>
	</g>
</g>
<g id="Layer_14_copy_4" class="st0">
	<g class="st10">
		<line class="st11" x1="1749.06" y1="2951.5" x2="1688.99" y2="3005.85"/>
		<line class="st11" x1="1823.59" y1="3033.86" x2="1763.52" y2="3088.22"/>
		<line class="st11" x1="1796.12" y1="3059.15" x2="1722.22" y2="2977.49"/>
		<polyline class="st11" points="1771.63,3051.43 1793.97,3057.25 1792.49,3032.98 		"/>
		<polyline class="st11" points="1746.54,2984.08 1724.2,2978.26 1725.68,3002.53 		"/>
	</g>
</g>
<g id="Layer_14_copy_5" class="st0">
	<g class="st10">
		<line class="st11" x1="1525.87" y1="3137.85" x2="1462.63" y2="3188.48"/>
		<line class="st11" x1="1595.29" y1="3224.56" x2="1532.05" y2="3275.2"/>
		<line class="st11" x1="1565.15" y1="3249.08" x2="1498.7" y2="3161.25"/>
		<polyline class="st11" points="1542.37,3238.97 1564.31,3246.12 1564.3,3221.81 		"/>
		<polyline class="st11" points="1521.38,3170.22 1499.44,3163.07 1499.44,3187.38 		"/>
	</g>
</g>
<g id="Layer_14_copy_6" class="st0">
	<g class="st10">
		<line class="st11" x1="1154.06" y1="2881.85" x2="1101.97" y2="2819.8"/>
		<line class="st11" x1="1069" y1="2953.27" x2="1016.9" y2="2891.23"/>
		<line class="st11" x1="1044.74" y1="2924.88" x2="1129.08" y2="2854.06"/>
		<polyline class="st11" points="1053.36,2900.7 1046.72,2922.81 1071.03,2922.23 		"/>
		<polyline class="st11" points="1121.59,2878.12 1128.24,2856.01 1103.93,2856.59 		"/>
	</g>
</g>
<g id="Layer_14_copy_7" class="st0">
	<g class="st10">
		<line class="st11" x1="548.85" y1="2193.2" x2="611.88" y2="2142.31"/>
		<line class="st11" x1="479.07" y1="2106.77" x2="542.11" y2="2055.88"/>
		<line class="st11" x1="507.93" y1="2083.07" x2="577.11" y2="2168.76"/>
		<polyline class="st11" points="531.94,2092.15 509.97,2085.08 510.07,2109.4 		"/>
		<polyline class="st11" points="553.2,2160.81 575.18,2167.88 575.07,2143.56 		"/>
	</g>
</g>
<g id="Layer_14_copy_8" class="st0">
	<g class="st10">
		<line class="st11" x1="2444.61" y1="1958.43" x2="2523.1" y2="1978.53"/>
		<line class="st11" x1="2472.17" y1="1850.82" x2="2550.66" y2="1870.92"/>
		<line class="st11" x1="2508.43" y1="1859.78" x2="2481.1" y2="1966.47"/>
		<polyline class="st11" points="2515.5,1884.46 2508.03,1862.62 2488.6,1877.24 		"/>
		<polyline class="st11" points="2473.18,1942.55 2480.66,1964.39 2500.08,1949.77 		"/>
	</g>
</g>
<g id="Layer_14_copy_9" class="st0">
	<g class="st10">
		<line class="st11" x1="2897.19" y1="2032.22" x2="2976.35" y2="2015.01"/>
		<line class="st11" x1="2873.58" y1="1923.68" x2="2952.75" y2="1906.46"/>
		<line class="st11" x1="2910.01" y1="1915.43" x2="2933.41" y2="2023.05"/>
		<polyline class="st11" points="2927.39,1934.32 2910.92,1918.15 2900.11,1939.93 		"/>
		<polyline class="st11" points="2915.61,2005.22 2932.08,2021.4 2942.89,1999.61 		"/>
	</g>
</g>
<g id="Layer_14_copy_10" class="st0">
	<g class="st10">
		<line class="st11" x1="3158.73" y1="1921.92" x2="3220.72" y2="1869.76"/>
		<line class="st11" x1="3087.22" y1="1836.92" x2="3149.21" y2="1784.76"/>
		<line class="st11" x1="3115.59" y1="1812.64" x2="3186.49" y2="1896.91"/>
		<polyline class="st11" points="3139.78,1821.23 3117.66,1814.61 3118.26,1838.92 		"/>
		<polyline class="st11" points="3162.42,1889.44 3184.54,1896.07 3183.94,1871.76 		"/>
	</g>
</g>
</svg>
